<svg width="24" height="24" fill="none" xmlns="http://www.w3.org/2000/svg"><g clip-path="url(#clip0_39_522)"><g clip-path="url(#clip1_39_522)"><path d="M20.999 9.461c0-1.14-.366-2.21-1.065-3.143.266-.898.333-2.038.266-3.35-.033-.553-.465-.968-.998-.968-.3 0-2.828.035-4.292 1.382a10.535 10.535 0 00-3.893 0C9.587 2.035 7.058 2 6.725 2c-.532 0-.965.415-.998.967-.1 1.313 0 2.453.266 3.35-.698.968-1.064 2.039-1.064 3.144 0 2.418 1.796 4.594 4.525 5.63-.1.208-.167.45-.233.691-2.895-.31-4.26-3.04-4.326-3.143a.942.942 0 00-1.33-.449c-.5.242-.7.864-.433 1.382.067.172 1.896 3.868 5.922 4.283v3.109c0 .587.433 1.036.998 1.036h5.823c.566 0 .998-.45.998-1.036v-4.11a4.21 4.21 0 00-.366-1.728C19.202 14.056 21 11.914 21 9.461z" fill="#6070FF"/></g></g><defs><clipPath id="clip0_39_522"><path fill="#fff" transform="translate(3 2)" d="M0 0h18v20H0z"/></clipPath><clipPath id="clip1_39_522"><path fill="#fff" transform="translate(3 2)" d="M0 0h18v20H0z"/></clipPath></defs></svg>